<svg width="24" height="24" viewBox="0 0 24 24" fill="none" xmlns="http://www.w3.org/2000/svg">
<path d="M19 21H5C4.46957 21 3.96077 20.7894 3.58569 20.4143C3.21062 20.0392 3 19.5304 3 19V5C3 4.46957 3.21062 3.96089 3.58569 3.58582C3.96077 3.21074 4.46957 3 5 3H19C19.5304 3 20.039 3.21074 20.4141 3.58582C20.7891 3.96089 21 4.46957 21 5V19C21 19.5304 20.7891 20.0392 20.4141 20.4143C20.039 20.7894 19.5304 21 19 21Z" stroke="#CECECE" stroke-width="2" stroke-miterlimit="10"/>
<path d="M14.9999 11C16.1044 11 16.9999 10.1046 16.9999 9C16.9999 7.89543 16.1044 7 14.9999 7C13.8953 7 12.9999 7.89543 12.9999 9C12.9999 10.1046 13.8953 11 14.9999 11Z" stroke="#CECECE" stroke-width="2" stroke-miterlimit="10"/>
<path d="M14.9999 11C16.1044 11 16.9999 10.1046 16.9999 9C16.9999 7.89543 16.1044 7 14.9999 7C13.8953 7 12.9999 7.89543 12.9999 9C12.9999 10.1046 13.8953 11 14.9999 11Z" stroke="#CECECE" stroke-width="2" stroke-miterlimit="10"/>
<path d="M5.99988 9H12.9999" stroke="#CECECE" stroke-width="2" stroke-miterlimit="10"/>
<path d="M8.99988 17C10.1044 17 10.9999 16.1046 10.9999 15C10.9999 13.8954 10.1044 13 8.99988 13C7.89531 13 6.99988 13.8954 6.99988 15C6.99988 16.1046 7.89531 17 8.99988 17Z" stroke="#CECECE" stroke-width="2" stroke-miterlimit="10"/>
<path d="M8.99988 17C10.1044 17 10.9999 16.1046 10.9999 15C10.9999 13.8954 10.1044 13 8.99988 13C7.89531 13 6.99988 13.8954 6.99988 15C6.99988 16.1046 7.89531 17 8.99988 17Z" stroke="#CECECE" stroke-width="2" stroke-miterlimit="10"/>
<path d="M17.9999 15H10.9999" stroke="#CECECE" stroke-width="2" stroke-miterlimit="10"/>
</svg>
